<?xml version="1.0" encoding="UTF-8"?>
<svg id="Layer_1" data-name="Layer 1" xmlns="http://www.w3.org/2000/svg" viewBox="0 0 498.48 283.27">
  <defs>
    <style>
      .cls-1 {
        fill: #fff;
      }

      .cls-1, .cls-2 {
        stroke-width: 0px;
      }

      .cls-2 {
        fill: #231f20;
      }
    </style>
  </defs>
  <path class="cls-2" d="m441.42,193.21c5.89,2.51,61.57-56.84,56.76-54.83-25.43,10.59-45.29,6.65-67.81,8.7-.17.02-.35.1-.52.13-17.78-.31-52.32,4.28-82.24-2.33-42.38-9.36-58.27-2.12-64.28,3.53-6,5.65-17.66,30.02-9.36,40.61,8.3,10.6,55.98,39.73,67.63,60.92,11.65,21.19,7.42,18.36,14.83,31.08.48.82,1.26,1.02,2.28.7,17.93.23,125.79-56.92,118.97-58-7.24-1.15-42.17-33.02-36.28-30.52Z"/>
  <ellipse class="cls-1" cx="304.22" cy="174.48" rx="11.12" ry="13.23" transform="translate(-18.13 312.64) rotate(-53.04)"/>
  <path class="cls-2" d="m57.06,193.21c-5.89,2.51-61.57-56.84-56.76-54.83,25.43,10.59,45.29,6.65,67.81,8.7.17.02.35.1.52.13,17.78-.31,52.32,4.28,82.24-2.33,42.38-9.36,58.27-2.12,64.28,3.53,6,5.65,17.66,30.02,9.36,40.61-8.3,10.6-55.98,39.73-67.63,60.92-11.65,21.19-7.42,18.36-14.83,31.08-.48.82-1.26,1.02-2.28.7-17.93.23-125.79-56.92-118.97-58,7.24-1.15,42.17-33.02,36.28-30.52Z"/>
  <ellipse class="cls-1" cx="194.26" cy="174.48" rx="13.23" ry="11.12" transform="translate(-65.88 151.88) rotate(-36.96)"/>
  <path class="cls-2" d="m471.45,3.02c-8.4-14.29-102.18,25.55-119.66,48.45-20.9-11.03-57.38-27.53-82.05-31.14-7.17-1.21-14.95-1.83-22.66-2.1-7.7.27-15.49.89-22.66,2.1-25.49,3.73-63.58,21.22-84.07,32.22C125.1,29.85,28.46-11.5,19.92,3.02c-9.42,16.01,13.09,113.81,25.88,122.39,11.96,8.02,82.81-39.77,94.88-62.27,28.45,5.88,91.64,63.17,106.41,63.17s76.4-55.92,103.92-62.61c12.91,22.71,82.7,69.67,94.56,61.71,12.79-8.58,35.3-106.38,25.88-122.39Z"/>
  <path class="cls-2" d="m309.21,227.12c-3.69-3.73-22.84-12.5-35.21-13.8-6.04-.64-14.63-1.25-24.26-1.46v-.03c-.17,0-.33.01-.5.02-.17,0-.33-.01-.5-.02v.03c-9.62.21-18.21.83-24.26,1.46-12.37,1.3-31.52,10.07-35.21,13.8-3.69,3.73-.56,11.15,8.81,27.81,9.37,16.66,28.27,25.17,35.43,27.05,4.07,1.07,9.69,1.43,15.73,1.23,6.04.2,11.66-.16,15.73-1.23,7.15-1.88,26.05-10.39,35.43-27.05,9.37-16.66,12.51-24.08,8.81-27.81Z"/>
</svg>